<svg width="32" height="32" viewBox="0 0 32 32" fill="none" xmlns="http://www.w3.org/2000/svg">
  <defs>
    <linearGradient id="favicon-gradient" x1="0%" y1="0%" x2="100%" y2="100%">
      <stop offset="0%" stop-color="#8B5CF6" />
      <stop offset="100%" stop-color="#14B8A6" />
    </linearGradient>
  </defs>
  
  <!-- Simplified lotus for favicon -->
  <circle cx="16" cy="16" r="3" fill="url(#favicon-gradient)" />
  <path d="M16 26 C12 22, 12 18, 16 14 C20 18, 20 22, 16 26" fill="url(#favicon-gradient)" opacity="0.9" />
  <path d="M16 14 C12 10, 12 6, 16 2 C20 6, 20 10, 16 14" fill="url(#favicon-gradient)" opacity="0.9" />
  <path d="M6 20 C2 18, 0 14, 4 10 C8 12, 10 16, 6 20" fill="url(#favicon-gradient)" opacity="0.9" />
  <path d="M26 20 C30 18, 32 14, 28 10 C24 12, 22 16, 26 20" fill="url(#favicon-gradient)" opacity="0.9" />
</svg>
